<svg width="37" height="55" viewBox="0 0 37 55" fill="none" xmlns="http://www.w3.org/2000/svg">
<path d="M35.7362 44.4921C33.7423 41.6134 28.227 34.0182 23.6994 27.7678C25.5326 25.0316 26.9944 22.7966 27.6634 21.627C31.7327 14.5221 29.9654 9.95895 27.7213 6.09698C25.472 2.23227 25.1164 0 18.4211 0C11.7232 0 11.3676 2.23227 9.12092 6.09972C6.8716 9.96169 5.10691 14.5248 9.17623 21.6298C9.84524 22.7966 11.307 25.0343 13.1428 27.7706C8.61259 34.0182 3.09727 41.6161 1.10343 44.4948C0.639869 45.1631 0.682011 46.3135 1.12713 47.4584C1.46954 48.3403 2.78647 52.2845 3.1078 53.1117C3.51869 54.1771 4.85669 54.9468 5.95765 53.3636C6.59241 52.4488 12.7583 43.7087 18.4211 35.5C24.0813 43.706 30.2498 52.4488 30.8846 53.3636C31.9829 54.9468 33.3235 54.1771 33.7344 53.1117C34.0558 52.2817 35.3727 48.3403 35.7151 47.4584C36.1549 46.3108 36.1997 45.1604 35.7362 44.4921ZM17.4571 19.088C14.6441 15.0233 12.6319 10.2931 12.6319 10.2931C12.6319 10.2931 13.7381 8.21695 18.4211 8.21695C23.1041 8.21695 24.2104 10.2931 24.2104 10.2931C24.2104 10.2931 22.1928 15.0233 19.3825 19.088L18.4211 20.4493C18.0965 19.998 17.7751 19.5443 17.4571 19.088Z" fill="#ED0566"/>
</svg>
