<svg width="24" height="24" viewBox="0 0 24 24" fill="none" xmlns="http://www.w3.org/2000/svg">
<path d="M20.1818 4H3.81818C2.81403 4 2 4.79594 2 5.77778V18.2222C2 19.2041 2.81403 20 3.81818 20H20.1818C21.186 20 22 19.2041 22 18.2222V5.77778C22 4.79594 21.186 4 20.1818 4Z" fill="#FFE8DC"/>
<path fill-rule="evenodd" clip-rule="evenodd" d="M1 5.77778C1 4.22259 2.28305 3 3.81818 3H20.1818C21.717 3 23 4.22259 23 5.77778V18.2222C23 19.7775 21.717 21 20.1818 21H3.81818C2.28306 21 1 19.7775 1 18.2222V5.77778ZM3.81818 5C3.34501 5 3 5.36929 3 5.77778V18.2222C3 18.6307 3.345 19 3.81818 19H20.1818C20.655 19 21 18.6307 21 18.2222V5.77778C21 5.36929 20.655 5 20.1818 5H3.81818Z" fill="#212121"/>
<path fill-rule="evenodd" clip-rule="evenodd" d="M10.0627 14.93L7.63106 17.2L6.2663 15.738L8.69798 13.468L10.0627 14.93Z" fill="#212121"/>
<path fill-rule="evenodd" clip-rule="evenodd" d="M15.2991 13.468L17.7308 15.738L16.366 17.2L13.9343 14.93L15.2991 13.468Z" fill="#212121"/>
<path fill-rule="evenodd" clip-rule="evenodd" d="M17.9581 8.01644L11.9986 13.8435L6.039 8.01645L7.43723 6.58643L11.9986 11.0464L16.5599 6.58643L17.9581 8.01644Z" fill="#212121"/>
</svg>
