<svg width="37" height="57" viewBox="0 0 37 57" fill="none" xmlns="http://www.w3.org/2000/svg">
<path d="M36.3574 46.7438C34.284 43.7506 28.5486 35.8531 23.8402 29.354C25.7466 26.5089 27.2667 24.1849 27.9624 22.9688C32.1941 15.5812 30.3563 10.8365 28.0227 6.8208C25.6836 2.8023 25.3138 0.481201 18.3513 0.481201C11.3861 0.481201 11.0163 2.8023 8.67997 6.82365C6.34087 10.8393 4.50575 15.584 8.73748 22.9717C9.43319 24.1849 10.9533 26.5117 12.8624 29.3569C8.15134 35.8531 2.41591 43.7534 0.342495 46.7466C-0.139566 47.4415 -0.0957422 48.6377 0.367146 49.8281C0.723214 50.7452 2.09271 54.8463 2.42686 55.7064C2.85414 56.8142 4.24555 57.6145 5.39044 55.9684C6.05054 55.0172 12.4625 45.9293 18.3513 37.3939C24.2374 45.9264 30.6521 55.0172 31.3122 55.9684C32.4544 57.6145 33.8485 56.8142 34.2758 55.7064C34.6099 54.8434 35.9794 50.7452 36.3355 49.8281C36.7929 48.6348 36.8395 47.4387 36.3574 46.7438ZM17.3489 20.3288C14.4236 16.1024 12.331 11.1839 12.331 11.1839C12.331 11.1839 13.4814 9.02514 18.3513 9.02514C23.2212 9.02514 24.3716 11.1839 24.3716 11.1839C24.3716 11.1839 22.2735 16.1024 19.351 20.3288L18.3513 21.7442C18.0137 21.275 17.6796 20.8032 17.3489 20.3288Z" fill="#ED0566"/>
</svg>
