<svg width="46" height="47" viewBox="0 0 46 47" fill="none" xmlns="http://www.w3.org/2000/svg">
<path d="M27.4444 30.7278V35.3491C27.4444 35.962 27.2103 36.5497 26.7936 36.983C26.3768 37.4164 25.8116 37.6598 25.2222 37.6598H9.66667L3 44.5918V21.4852C3 20.8724 3.23413 20.2847 3.65087 19.8513C4.06762 19.418 4.63285 19.1746 5.22222 19.1746H9.66667M43 28.4172L36.3333 21.4852H20.7778C20.1884 21.4852 19.6232 21.2418 19.2064 20.8085C18.7897 20.3751 18.5556 19.7874 18.5556 19.1746V5.31065C18.5556 4.69783 18.7897 4.11011 19.2064 3.67677C19.6232 3.24344 20.1884 3 20.7778 3H40.7778C41.3671 3 41.9324 3.24344 42.3491 3.67677C42.7659 4.11011 43 4.69783 43 5.31065V28.4172Z" stroke="#ED0566" stroke-width="4.44444" stroke-linecap="round" stroke-linejoin="round"/>
</svg>
