<svg width="38" height="49" viewBox="0 0 38 49" fill="none" xmlns="http://www.w3.org/2000/svg">
<path d="M31.9545 15.747C31.058 15.7457 30.1726 15.9483 29.3636 16.3399V9.62144C29.3634 8.55991 29.0909 7.51668 28.5728 6.59401C28.0548 5.67135 27.309 4.90093 26.4086 4.35829C25.5082 3.81564 24.484 3.5194 23.4366 3.49862C22.3891 3.47783 21.3543 3.7332 20.4336 4.2397C19.9904 2.85179 19.0729 1.66971 17.8462 0.906156C16.6194 0.142601 15.1641 -0.152303 13.7419 0.0745062C12.3197 0.301315 11.0241 1.03495 10.0881 2.1434C9.15221 3.25185 8.63741 4.66235 8.63636 6.12112V7.58907C7.82738 7.19752 6.94199 6.99492 6.04545 6.9962C4.4421 6.9962 2.90442 7.64157 1.77067 8.79033C0.63693 9.9391 0 11.4972 0 13.1218V29.7483C0 34.8541 2.00178 39.7509 5.56497 43.3613C9.12816 46.9717 13.9609 49 19 49C24.0391 49 28.8718 46.9717 32.435 43.3613C35.9982 39.7509 38 34.8541 38 29.7483V21.8725C38 20.2479 37.3631 18.6899 36.2293 17.5411C35.0956 16.3924 33.5579 15.747 31.9545 15.747ZM34.5455 29.7483C34.5455 33.9258 32.9076 37.9322 29.9923 40.8862C27.077 43.8402 23.1229 45.4997 19 45.4997C14.8771 45.4997 10.923 43.8402 8.0077 40.8862C5.09237 37.9322 3.45455 33.9258 3.45455 29.7483V13.1218C3.45455 12.4255 3.72752 11.7578 4.2134 11.2654C4.69929 10.7731 5.3583 10.4965 6.04545 10.4965C6.73261 10.4965 7.39161 10.7731 7.8775 11.2654C8.36339 11.7578 8.63636 12.4255 8.63636 13.1218V22.7476C8.63636 23.2118 8.81834 23.657 9.14227 23.9852C9.4662 24.3134 9.90554 24.4978 10.3636 24.4978C10.8217 24.4978 11.2611 24.3134 11.585 23.9852C11.9089 23.657 12.0909 23.2118 12.0909 22.7476V6.12112C12.0909 5.42487 12.3639 4.75713 12.8498 4.2648C13.3357 3.77247 13.9947 3.49588 14.6818 3.49588C15.369 3.49588 16.028 3.77247 16.5139 4.2648C16.9998 4.75713 17.2727 5.42487 17.2727 6.12112V20.9975C17.2727 21.4616 17.4547 21.9068 17.7786 22.235C18.1026 22.5632 18.5419 22.7476 19 22.7476C19.4581 22.7476 19.8974 22.5632 20.2214 22.235C20.5453 21.9068 20.7273 21.4616 20.7273 20.9975V9.62144C20.7273 8.92518 21.0002 8.25744 21.4861 7.76511C21.972 7.27279 22.631 6.9962 23.3182 6.9962C24.0053 6.9962 24.6643 7.27279 25.1502 7.76511C25.6361 8.25744 25.9091 8.92518 25.9091 9.62144V24.6444C23.4957 25.0612 21.3053 26.329 19.725 28.2237C18.1447 30.1184 17.2761 32.518 17.2727 34.9987C17.2727 35.4629 17.4547 35.9081 17.7786 36.2363C18.1026 36.5645 18.5419 36.7489 19 36.7489C19.4581 36.7489 19.8974 36.5645 20.2214 36.2363C20.5453 35.9081 20.7273 35.4629 20.7273 34.9987C20.7273 33.142 21.4552 31.3614 22.7509 30.0485C24.0466 28.7357 25.804 27.9981 27.6364 27.9981C28.0945 27.9981 28.5338 27.8137 28.8577 27.4855C29.1817 27.1573 29.3636 26.7121 29.3636 26.2479V21.8725C29.3636 21.1763 29.6366 20.5086 30.1225 20.0162C30.6084 19.5239 31.2674 19.2473 31.9545 19.2473C32.6417 19.2473 33.3007 19.5239 33.7866 20.0162C34.2725 20.5086 34.5455 21.1763 34.5455 21.8725V29.7483Z" fill="#ED0566"/>
</svg>
